<svg width="36" height="36" viewBox="0 0 36 36" fill="none" xmlns="http://www.w3.org/2000/svg">
<path d="M7.73438 0C2.8125 0 0 3.11278 0 7.57895C0 11.7744 2.53125 14.4812 6.32813 14.4812C7.73438 14.4812 9.28125 13.9399 10.4062 12.9925C10.8281 14.0752 10.9688 15.2932 10.9688 16.782C10.9688 23.8195 7.73437 30.0451 1.82812 33.6992L2.95312 36C11.6719 30.9925 16.3125 22.0602 16.3125 11.7744C16.3125 4.60151 12.9375 0 7.73438 0ZM27.4219 0C22.5 0 19.6875 3.11278 19.6875 7.57895C19.6875 11.7744 22.2188 14.4812 26.0156 14.4812C27.4219 14.4812 28.9688 13.9399 30.0938 12.9925C30.5156 14.0752 30.6562 15.2932 30.6562 16.782C30.6562 23.8195 27.4219 30.0451 21.5156 33.6992L22.6406 36C31.3594 30.9925 36 22.0602 36 11.7744C36 4.60151 32.625 0 27.4219 0Z" fill="#FABF28" fill-opacity="0.6"/>
</svg>
