<svg width="228" height="28" viewBox="0 0 228 28" fill="none" xmlns="http://www.w3.org/2000/svg">
<path d="M31.6957 24.8437H23.6122L20.3275 11.6092L16.9877 24.8437H8.84329L3.74219 3.6084H11.1121L13.4382 17.2932L16.5724 3.6084H24.2684L27.1316 17.2349L29.4264 3.6084H36.7681L31.6957 24.8437Z" fill="#1D0F2D"/>
<path d="M46.9069 8.48169C55.884 8.48169 58.7504 12.8732 58.7504 16.8428C58.7504 22.4681 53.5888 25.265 47.0565 25.265C41.5062 25.265 35.3618 23.1582 35.3618 16.9038C35.3614 10.7673 41.2074 8.48169 46.9069 8.48169ZM46.9938 12.6627C43.8623 12.6627 42.6408 14.7984 42.6408 16.6613C42.6408 19.9414 45.026 20.9647 47.2021 20.9647C48.636 20.9647 51.4992 20.2417 51.4992 16.7837C51.4992 14.2276 49.7993 12.6627 46.9938 12.6627Z" fill="#1D0F2D"/>
<path d="M66.7421 10.9182C68.4712 9.65455 70.3516 8.60229 73.6045 8.60229C80.2573 8.60229 81.0608 12.0924 81.0608 15.8209V24.8437H73.9902V17.1735C73.9902 13.9548 72.2903 13.1442 70.4125 13.1442C67.1014 13.1442 66.7426 15.9094 66.7426 17.2642V24.8432H59.645V8.90352H66.7426V10.9182H66.7421Z" fill="#1D0F2D"/>
<path d="M96.2749 24.8437V23.2789C95.2594 24.1527 92.9906 25.2041 90.3088 25.2041C85.2373 25.2041 81.9243 21.7461 81.9243 16.9341C81.9243 13.0227 84.4019 8.39233 90.3379 8.39233C93.5581 8.39233 95.2003 9.62614 96.2749 10.4982V3.6084H103.314V24.8437H96.2749ZM92.6654 13.2038C90.4866 13.2038 88.9627 14.4968 88.9627 16.7838C88.9627 18.858 90.3083 20.5114 92.6045 20.5114C94.7832 20.5114 96.2744 18.9488 96.2744 16.7838C96.2748 15.129 95.4386 13.2038 92.6654 13.2038Z" fill="#1D0F2D"/>
<path d="M111.575 17.8668C112.141 20.8741 115.065 21.2661 115.959 21.2661C117.721 21.2661 119.063 20.3615 119.511 19.8205L126.849 20.1809C125.419 23.1588 121.777 25.294 115.631 25.294C110.412 25.294 104.295 23.2789 104.295 16.7838C104.295 15.1905 104.773 12.3932 107.487 10.4978C109.426 9.11363 111.665 8.45337 115.631 8.45337C119.002 8.45337 122.581 8.9944 125.029 11.5501C126.521 13.1443 127.266 15.0085 127.266 17.8663H111.575V17.8668ZM119.868 15.0998C119.482 14.0168 118.495 12.5427 115.841 12.5427C115.153 12.5427 112.619 12.6041 111.813 15.0998H119.868Z" fill="#1D0F2D"/>
<path d="M134.769 8.90352V11.4307C135.484 10.1969 137.392 8.60229 140.229 8.60229V14.8883C140.17 14.8598 139.064 14.7686 138.559 14.7686C136.917 14.7686 134.74 15.0084 134.74 17.6269V24.8432H127.731V8.90352H134.769Z" fill="#1D0F2D"/>
<path d="M140.745 24.8437V3.6084H147.816V24.8437H140.745Z" fill="#1D0F2D"/>
<path d="M163.774 24.8437C163.595 24.1211 163.566 24.0628 163.505 23.3104C162.343 23.8515 159.33 25.2939 155.659 25.2939C150.529 25.2939 148.709 22.708 148.709 20.2417C148.709 15.8503 152.438 14.6779 163.208 14.6779H163.385V14.4972C163.385 12.6334 161.3 12.4221 159.985 12.4221C158.702 12.4221 156.346 12.6334 156.137 13.865H149.366C149.692 11.7907 150.619 10.4363 152.138 9.62567C153.75 8.75406 156.763 8.36206 159.746 8.36206C167.949 8.36206 170.218 10.0461 170.218 14.107V22.5264C170.218 23.9427 170.515 24.3031 171.083 24.8437H163.774ZM159.391 17.7461C157.122 17.8667 155.838 18.2257 155.838 19.4898C155.838 20.151 156.436 21.084 158.285 21.084C159.391 21.084 161.596 20.6021 162.731 19.3087C163.208 18.7677 163.325 18.2551 163.476 17.5357L159.391 17.7461Z" fill="#1D0F2D"/>
<path d="M179.116 10.9182C180.848 9.65455 182.726 8.60229 185.979 8.60229C192.63 8.60229 193.435 12.0924 193.435 15.8209V24.8437H186.368V17.1735C186.368 13.9548 184.666 13.1442 182.786 13.1442C179.473 13.1442 179.116 15.9094 179.116 17.2642V24.8432H172.016V8.90352H179.116V10.9182Z" fill="#1D0F2D"/>
<path d="M208.649 24.8437V23.2789C207.636 24.1527 205.367 25.2041 202.683 25.2041C197.611 25.2041 194.3 21.7461 194.3 16.9341C194.3 13.0227 196.776 8.39233 202.712 8.39233C205.935 8.39233 207.575 9.62614 208.649 10.4982V3.6084H215.691V24.8437H208.649ZM205.039 13.2038C202.86 13.2038 201.34 14.4968 201.34 16.7838C201.34 18.858 202.683 20.5114 204.978 20.5114C207.157 20.5114 208.648 18.9488 208.648 16.7838C208.649 15.129 207.814 13.2038 205.039 13.2038Z" fill="#1D0F2D"/>
<path d="M217.455 24.8436V19.3091H224.314V24.8436H217.455Z" fill="#1D0F2D"/>
</svg>
