<svg width="20" height="20" viewBox="0 0 20 20" fill="none" xmlns="http://www.w3.org/2000/svg">
<path d="M18.7626 5.01514C17.6212 5.01514 16.5681 4.63701 15.7224 3.99912C14.7524 3.26787 14.0556 2.19521 13.8095 0.958887C13.7485 0.653418 13.7157 0.338184 13.7126 0.0151367H10.452V8.92451L10.4481 13.8046C10.4481 15.1093 9.59853 16.2155 8.42079 16.6046C8.079 16.7175 7.70986 16.771 7.32548 16.7499C6.83486 16.7229 6.37509 16.5749 5.97548 16.3358C5.12509 15.8272 4.54853 14.9046 4.5329 13.8491C4.50829 12.1995 5.84189 10.8546 7.49032 10.8546C7.81572 10.8546 8.12822 10.9077 8.42079 11.0042V8.56904V7.69365C8.1122 7.64795 7.79814 7.62412 7.48056 7.62412C5.67626 7.62412 3.98876 8.37412 2.78251 9.72529C1.87079 10.7464 1.32392 12.0491 1.23954 13.4151C1.129 15.2097 1.78564 16.9155 3.05907 18.1741C3.24618 18.3589 3.44267 18.5304 3.64814 18.6886C4.73993 19.5288 6.0747 19.9843 7.48056 19.9843C7.79814 19.9843 8.1122 19.9608 8.42079 19.9151C9.73408 19.7206 10.9458 19.1194 11.902 18.1741C13.077 17.0128 13.7263 15.471 13.7333 13.83L13.7165 6.54248C14.277 6.9749 14.8899 7.33271 15.5477 7.61045C16.5708 8.04209 17.6556 8.26084 18.772 8.26045V5.89287V5.01436C18.7727 5.01514 18.7634 5.01514 18.7626 5.01514V5.01514Z" fill="#1D0F2D"/>
</svg>
