<svg width="20" height="20" viewBox="0 0 20 20" fill="none" xmlns="http://www.w3.org/2000/svg">
<path d="M19.7329 0.155814C19.5657 0.0200995 19.3457 -0.0270434 19.1314 0.0158137L6.27429 2.87296C5.94714 2.94581 5.71429 3.23581 5.71429 3.5701V14.8701C5.11571 14.5072 4.37857 14.2844 3.57143 14.2844C1.60286 14.2844 0 15.5658 0 17.1415C0 18.7172 1.60286 19.9987 3.57143 19.9987C5.54 19.9987 7.14286 18.7172 7.14286 17.1415V8.42867L18.5714 5.88867V12.013C17.9729 11.6501 17.2357 11.4272 16.4286 11.4272C14.4586 11.4272 12.8571 12.7087 12.8571 14.2844C12.8571 15.8601 14.4586 17.1415 16.4286 17.1415C18.3986 17.1415 20 15.8601 20 14.2844V0.712956C20 0.495814 19.9029 0.291528 19.7329 0.155814V0.155814Z" fill="#1D0F2D"/>
</svg>
