<svg width="20" height="20" viewBox="0 0 20 20" fill="none" xmlns="http://www.w3.org/2000/svg">
<g clip-path="url(#clip0_516_1133)">
<path d="M9.99929 17.2653C9.99761 17.2653 9.99578 17.2653 9.99395 17.2653C9.39047 17.2612 4.05537 17.2125 2.54384 16.8038C1.48747 16.5198 0.653573 15.6868 0.368844 14.6303C-0.0266649 13.1455 -0.00148784 10.2867 0.00125875 10.0585C-0.00133525 9.83125 -0.0268175 6.94886 0.367623 5.45182C0.368081 5.45044 0.368386 5.44892 0.368844 5.44754C0.650369 4.40308 1.50303 3.54431 2.54124 3.25958C2.54384 3.25882 2.54658 3.25821 2.54918 3.25745C4.04362 2.86469 9.38924 2.81662 9.99395 2.8125H10.0048C10.6098 2.81662 15.9591 2.8653 17.4567 3.27469C18.5104 3.55789 19.3436 4.3898 19.6291 5.44495C20.0394 6.94306 20.0014 9.83171 19.9973 10.0755C20.0002 10.3157 20.0242 13.1488 19.631 14.6411C19.6307 14.6427 19.6302 14.644 19.6299 14.6454C19.345 15.7019 18.5113 16.5349 17.4537 16.8192C17.4523 16.8196 17.4508 16.8199 17.4494 16.8204C15.9551 17.213 10.6093 17.2611 10.0048 17.2653C10.003 17.2653 10.0011 17.2653 9.99929 17.2653V17.2653ZM1.87794 5.85251C1.53065 7.17393 1.56346 10.0195 1.56376 10.0482V10.0688C1.55339 10.858 1.58985 13.1435 1.87809 14.2259C2.01786 14.7443 2.42909 15.1549 2.95064 15.2951C4.0659 15.5968 8.41115 15.6917 9.99929 15.7028C11.5915 15.6917 15.9432 15.5994 17.0502 15.3098C17.5701 15.1691 17.98 14.7598 18.1206 14.2409C18.4092 13.1426 18.4454 10.8682 18.4348 10.0841C18.4348 10.0758 18.4348 10.0676 18.435 10.0594C18.4493 9.26072 18.4211 6.94855 18.122 5.8574C18.1217 5.85633 18.1214 5.85526 18.1213 5.85419C17.9809 5.33356 17.5695 4.92295 17.0479 4.78272C15.9435 4.48075 11.5912 4.38614 9.99929 4.375C8.4081 4.38614 4.06071 4.4783 2.95033 4.76761C2.4387 4.90952 2.01817 5.33478 1.87794 5.85251V5.85251ZM18.8755 14.4422H18.876H18.8755ZM8.00786 13.2028V6.87485L13.4766 10.0389L8.00786 13.2028Z" fill="#1D0F2D"/>
</g>
<defs>
<clipPath id="clip0_516_1133">
<rect width="20" height="20" fill="white"/>
</clipPath>
</defs>
</svg>
