<svg width="116" height="36" viewBox="0 0 116 36" fill="none" xmlns="http://www.w3.org/2000/svg">
<g clip-path="url(#clip0_311_3206)">
<path d="M25.3679 25.4565C25.6816 24.9624 25.5183 24.3162 25.0088 24.012C20.4263 21.2958 14.7451 20.664 8.12198 22.1328C7.53826 22.2615 7.17449 22.8249 7.30626 23.391C7.4399 23.9562 8.02175 24.3117 8.60454 24.1812C14.656 22.8411 19.7962 23.3874 23.8785 25.8075C24.3889 26.1099 25.0561 25.9542 25.3679 25.4565Z" fill="white"/>
<path d="M29.9063 15.534C30.3638 14.7861 30.1095 13.8177 29.3384 13.3731C22.8869 9.65881 12.6761 9.30871 6.53554 11.1177C5.67621 11.3706 5.19273 12.2517 5.45164 13.0851C5.71148 13.9185 6.62092 14.3883 7.47932 14.1363C12.8311 12.5613 22.074 12.8583 27.6791 16.0857C28.4493 16.5303 29.4497 16.2837 29.9063 15.534Z" fill="white"/>
<path d="M27.0571 19.0602C21.6895 15.8616 13.8368 14.9616 7.52361 16.8201C6.8072 17.0316 6.40259 17.7642 6.61696 18.4599C6.83411 19.1529 7.59136 19.5453 8.30777 19.3356C13.8349 17.7084 20.9675 18.5157 25.6391 21.3003C26.2766 21.6801 26.9708 21.4866 27.5099 20.8674V20.8683C28.0491 20.2491 27.6946 19.44 27.0571 19.0602Z" fill="white"/>
<path d="M17.2645 1.1394C7.55853 1.1385 -0.0566406 8.68771 -0.0566406 17.9991C-0.0566406 27.3123 7.75991 34.8615 17.3619 34.8615C26.9649 34.8615 34.6988 27.3132 34.6988 17.9991C34.6988 8.68861 26.9704 1.1394 17.2645 1.1394ZM8.60439 24.1812C8.0216 24.3117 7.43975 23.9571 7.30612 23.391C7.17434 22.8258 7.53812 22.2615 8.12183 22.1328C14.745 20.664 20.4253 21.2958 25.0087 24.012C25.5191 24.3162 25.6824 24.9624 25.3678 25.4574L25.3687 25.4565C25.0569 25.9533 24.3888 26.109 23.8793 25.8066C19.7961 23.3865 14.6559 22.8411 8.60439 24.1812ZM27.5096 20.8674C26.9704 21.4857 26.2754 21.6792 25.6378 21.2994C20.9663 18.5148 13.8374 17.7075 8.31021 19.3347C7.5938 19.5444 6.83376 19.1529 6.61661 18.459C6.40131 17.7633 6.80407 17.0307 7.52048 16.8192C13.8346 14.9616 21.6901 15.8607 27.0577 19.0593C27.6943 19.44 28.0488 20.2491 27.5096 20.8674ZM27.6794 16.0857C22.0752 12.8583 12.8314 12.5613 7.47965 14.1363C6.62125 14.3883 5.71181 13.9185 5.45197 13.0851C5.19213 12.2517 5.67655 11.3706 6.53587 11.1177C12.6765 9.30871 22.8872 9.65881 29.3387 13.3731C30.1108 13.8177 30.3641 14.7861 29.9066 15.534C29.4501 16.2837 28.4497 16.5303 27.6794 16.0857Z" fill="#24CF5F"/>
<path d="M47.4216 16.7049C44.4213 16.0101 43.8859 15.5232 43.8859 14.499C43.8859 13.5315 44.8259 12.8808 46.2226 12.8808C47.5756 12.8808 48.9175 13.3758 50.3253 14.3928C50.368 14.4234 50.4218 14.436 50.4738 14.4279C50.5266 14.4198 50.5712 14.3919 50.6037 14.3496L52.069 12.3462C52.1284 12.2634 52.1135 12.1491 52.0319 12.087C50.3568 10.7838 48.4711 10.1493 46.2671 10.1493C43.0256 10.1493 40.7613 12.0366 40.7613 14.7348C40.7613 17.6292 42.7147 18.6543 46.0899 19.4454C48.963 20.0871 49.4465 20.6253 49.4465 21.5856C49.4465 22.6503 48.4656 23.3127 46.8889 23.3127C45.1359 23.3127 43.7077 22.7403 42.1097 21.3975C42.0698 21.3642 42.016 21.3489 41.9649 21.3516C41.913 21.3561 41.8638 21.3795 41.8304 21.4191L40.1878 23.3163C40.1191 23.3946 40.1284 23.5125 40.2064 23.58C42.067 25.191 44.3545 26.0415 46.823 26.0415C50.316 26.0415 52.5729 24.1902 52.5729 21.3264C52.5785 18.9081 51.0862 17.5689 47.4308 16.7067L47.4216 16.7049Z" fill="#24CF5F"/>
<path d="M60.4731 13.833C58.9586 13.833 57.7169 14.4108 56.6942 15.597V14.2632C56.6942 14.1579 56.6052 14.0724 56.4966 14.0724H53.8091C53.7005 14.0724 53.6133 14.1579 53.6133 14.2632V29.0826C53.6133 29.1879 53.7005 29.2734 53.8091 29.2734H56.4966C56.6052 29.2734 56.6942 29.187 56.6942 29.0826V24.4053C57.7178 25.5195 58.9604 26.064 60.4731 26.064C63.2858 26.064 66.1339 23.9634 66.1339 19.9494C66.1385 15.9345 63.2895 13.833 60.4758 13.833H60.4731ZM63.0074 19.9494C63.0074 21.9933 61.7082 23.4207 59.8485 23.4207C58.0111 23.4207 56.6256 21.9285 56.6256 19.9494C56.6256 17.9703 58.0111 16.479 59.8485 16.479C61.6795 16.4781 63.0074 17.9379 63.0074 19.9494Z" fill="#24CF5F"/>
<path d="M73.4314 13.833C69.8085 13.833 66.9707 16.5384 66.9707 19.9926C66.9707 23.409 69.789 26.0865 73.3878 26.0865C77.0228 26.0865 79.8699 23.3901 79.8699 19.9494C79.8699 16.5195 77.0423 13.8339 73.4324 13.8339V13.833H73.4314ZM73.4314 23.4396C71.5049 23.4396 70.0517 21.9384 70.0517 19.9476C70.0517 17.9478 71.4548 16.4979 73.3869 16.4979C75.3264 16.4979 76.7889 17.9991 76.7889 19.9917C76.7889 21.9906 75.3775 23.4396 73.4314 23.4396Z" fill="#24CF5F"/>
<path d="M87.6061 14.0715H84.6476V11.1384C84.6476 11.0331 84.5595 10.9476 84.4518 10.9476H81.7644C81.6548 10.9476 81.5667 11.0331 81.5667 11.1384V14.0715H80.2749C80.1663 14.0715 80.0791 14.157 80.0791 14.2623V16.5024C80.0791 16.6077 80.1663 16.6932 80.2749 16.6932H81.5667V22.491C81.5667 24.8337 82.7694 26.0208 85.1404 26.0208C86.1046 26.0208 86.9036 25.8273 87.6581 25.4133C87.7193 25.38 87.7574 25.3161 87.7574 25.2477V23.1147C87.7574 23.049 87.723 22.986 87.6646 22.9518C87.6061 22.9158 87.5319 22.914 87.4725 22.9428C86.9556 23.1957 86.4545 23.3118 85.8949 23.3118C85.0318 23.3118 84.6476 22.932 84.6476 22.0815V16.695H87.6061C87.7138 16.695 87.8019 16.6095 87.8019 16.5042V14.2641C87.8066 14.1579 87.7193 14.0724 87.6089 14.0724L87.6061 14.0715Z" fill="#24CF5F"/>
<path d="M97.9107 14.0832V13.7232C97.9107 12.6639 98.3302 12.1914 99.2702 12.1914C99.8307 12.1914 100.281 12.2994 100.785 12.4614C100.847 12.4803 100.912 12.4713 100.962 12.4353C101.014 12.3993 101.043 12.3417 101.043 12.2805V10.0845C101.043 9.99991 100.986 9.92611 100.904 9.90091C100.372 9.74791 99.6897 9.58951 98.6698 9.58951C96.1874 9.58951 94.8752 10.9449 94.8752 13.509V14.0607H93.5835C93.4758 14.0607 93.3867 14.1471 93.3867 14.2524V16.5042C93.3867 16.6095 93.4758 16.695 93.5835 16.695H94.8752V25.6374C94.8752 25.7427 94.9625 25.8282 95.071 25.8282H97.7585C97.8671 25.8282 97.9562 25.7427 97.9562 25.6374V16.695H100.466L104.31 25.6347C103.873 26.5743 103.445 26.7606 102.86 26.7606C102.386 26.7606 101.886 26.6238 101.377 26.3538C101.328 26.3277 101.272 26.3232 101.22 26.3394C101.168 26.3565 101.125 26.3934 101.104 26.442L100.193 28.3797C100.149 28.4715 100.185 28.5786 100.277 28.6263C101.227 29.1258 102.087 29.3391 103.148 29.3391C105.132 29.3391 106.228 28.4427 107.196 26.0307L111.859 14.3451C111.882 14.2857 111.876 14.22 111.838 14.1678C111.801 14.1156 111.742 14.085 111.678 14.085H108.878C108.794 14.085 108.72 14.1363 108.692 14.2128L105.826 22.1526L102.686 14.2065C102.657 14.1327 102.582 14.0841 102.502 14.0841H97.9098V14.0832H97.9107Z" fill="#24CF5F"/>
<path d="M91.9369 14.0715H89.2494C89.1409 14.0715 89.0518 14.157 89.0518 14.2623V25.6356C89.0518 25.7409 89.1409 25.8264 89.2494 25.8264H91.9369C92.0446 25.8264 92.1336 25.7409 92.1336 25.6356V14.2641C92.1336 14.1588 92.0464 14.0724 91.9369 14.0715Z" fill="#24CF5F"/>
<path d="M90.6071 8.89291C89.5418 8.89291 88.6787 9.72901 88.6787 10.7622C88.6787 11.7954 89.5427 12.6324 90.6071 12.6324C91.6715 12.6324 92.5345 11.7954 92.5345 10.7622C92.5345 9.72901 91.6724 8.89291 90.6071 8.89291Z" fill="#24CF5F"/>
<path d="M114.155 17.7282C113.091 17.7282 112.264 16.8993 112.264 15.8931C112.264 14.8869 113.103 14.049 114.165 14.049C115.23 14.049 116.056 14.8779 116.056 15.8832C116.056 16.8894 115.217 17.7282 114.155 17.7282ZM114.165 14.2317C113.195 14.2317 112.463 14.9787 112.463 15.8931C112.463 16.8075 113.19 17.5446 114.155 17.5446C115.123 17.5446 115.858 16.7985 115.858 15.8832C115.859 14.9688 115.128 14.2317 114.165 14.2317ZM114.585 16.0722L115.119 16.7985H114.668L114.186 16.1325H113.772V16.7985H113.395V14.8734H114.279C114.741 14.8734 115.045 15.102 115.045 15.4872C115.046 15.8031 114.857 15.9957 114.586 16.0722H114.585ZM114.265 15.2037H113.772V15.813H114.265C114.511 15.813 114.657 15.696 114.657 15.5079C114.656 15.309 114.509 15.2037 114.265 15.2037Z" fill="#24CF5F"/>
</g>
<defs>
<clipPath id="clip0_311_3206">
<rect width="116" height="36" fill="white"/>
</clipPath>
</defs>
</svg>
