<svg width="116" height="36" viewBox="0 0 116 36" fill="none" xmlns="http://www.w3.org/2000/svg">
<g clip-path="url(#clip0_311_3196)">
<path d="M35.4496 12.96V11.61C35.4496 11.43 35.6352 11.25 35.8208 11.25H42.0384C42.224 11.25 42.4096 11.43 42.4096 11.61V12.78C42.4096 12.96 42.224 13.23 41.9456 13.59L38.6976 18.09C39.904 18.09 41.2032 18.27 42.224 18.81C42.5024 18.9 42.5024 19.17 42.5952 19.35V20.79C42.5952 20.97 42.4096 21.24 42.1312 21.06C40.1824 20.07 37.6768 19.98 35.5424 21.06C35.3568 21.15 35.0784 20.97 35.0784 20.79V19.44C35.0784 19.26 35.0784 18.81 35.3568 18.54L39.0688 13.32H35.8208C35.6352 13.32 35.4496 13.14 35.4496 12.96ZM12.7136 21.33H10.8576C10.672 21.33 10.5792 21.15 10.4864 21.06V11.61C10.4864 11.43 10.672 11.25 10.8576 11.25H12.6208C12.8064 11.25 12.992 11.43 12.992 11.61V12.87C13.456 11.7 14.2912 11.16 15.4976 11.16C16.704 11.16 17.4464 11.7 18.0032 12.87C18.4672 11.7 19.488 11.16 20.6016 11.16C21.4368 11.16 22.272 11.52 22.8288 12.15C23.3856 12.96 23.2928 14.13 23.2928 15.12V21.06C23.2928 21.24 23.1072 21.42 22.9216 21.42H21.0656C20.88 21.42 20.6944 21.24 20.6944 21.06V16.11C20.6944 15.75 20.6944 14.76 20.6016 14.31C20.416 13.68 20.0448 13.5 19.488 13.5C19.024 13.5 18.56 13.77 18.3744 14.31C18.1888 14.76 18.1888 15.57 18.1888 16.11V21.06C18.1888 21.24 18.0032 21.42 17.8176 21.42H15.9616C15.776 21.42 15.5904 21.24 15.5904 21.06V16.11C15.5904 15.03 15.776 13.5 14.384 13.5C12.992 13.5 13.0848 15.03 13.0848 16.11V21.06C13.0848 21.24 12.8992 21.33 12.7136 21.33ZM47.792 11.07C50.576 11.07 52.1536 13.41 52.1536 16.38C52.1536 19.26 50.4832 21.51 47.792 21.51C45.008 21.51 43.5232 19.17 43.5232 16.29C43.5232 13.32 45.008 11.07 47.792 11.07ZM47.792 13.05C46.4 13.05 46.3072 14.85 46.3072 16.02C46.3072 17.19 46.3072 19.62 47.792 19.62C49.2768 19.62 49.3696 17.64 49.3696 16.47C49.3696 15.66 49.3696 14.76 49.0912 13.95C48.8128 13.23 48.3488 13.05 47.792 13.05ZM55.7728 21.33H53.9168C53.7312 21.33 53.5456 21.15 53.5456 20.97V11.52C53.5456 11.34 53.7312 11.25 53.9168 11.25H55.68C55.8656 11.25 55.9584 11.34 56.0512 11.52V12.96C56.608 11.7 57.3504 11.07 58.6496 11.07C59.4848 11.07 60.32 11.34 60.8768 12.15C61.3408 12.87 61.3408 14.13 61.3408 15.12V21.06C61.3408 21.24 61.1552 21.33 60.9696 21.33H59.1136C58.928 21.33 58.8352 21.15 58.7424 21.06V15.93C58.7424 14.94 58.8352 13.41 57.536 13.41C57.072 13.41 56.608 13.68 56.4224 14.13C56.144 14.67 56.144 15.3 56.144 15.93V20.97C56.144 21.24 55.9584 21.33 55.7728 21.33ZM32.3872 21.33C32.2944 21.42 32.1088 21.42 31.9232 21.33C31.2736 20.79 31.1808 20.61 30.8096 20.07C29.7888 21.06 29.0464 21.42 27.6544 21.42C26.0768 21.42 24.7776 20.43 24.7776 18.54C24.7776 17.01 25.6128 16.02 26.8192 15.57C27.84 15.12 29.3248 15.03 30.3456 14.94V14.67C30.3456 14.22 30.3456 13.68 30.16 13.32C29.9744 12.96 29.5104 12.87 29.1392 12.87C28.3968 12.87 27.7472 13.23 27.6544 13.95C27.6544 14.13 27.4688 14.31 27.2832 14.31L25.4272 14.13C25.2416 14.13 25.056 13.95 25.1488 13.77C25.6128 11.61 27.5616 10.98 29.4176 10.98C30.3456 10.98 31.552 11.25 32.2944 11.88C33.2224 12.69 33.1296 13.86 33.1296 15.03V17.91C33.1296 18.81 33.5008 19.17 33.872 19.62C33.9648 19.8 34.0576 19.98 33.872 20.07C33.408 20.43 32.7584 20.97 32.3872 21.33ZM30.4384 16.83V16.47C29.0464 16.47 27.6544 16.74 27.6544 18.36C27.6544 19.17 28.1184 19.71 28.768 19.71C29.3248 19.71 29.7888 19.35 30.0672 18.9C30.4384 18.18 30.4384 17.55 30.4384 16.83ZM7.51683 21.33C7.42403 21.42 7.23843 21.42 7.05283 21.33C6.40323 20.79 6.31043 20.61 5.93923 20.07C4.91843 21.06 4.17603 21.42 2.78403 21.42C1.20643 21.42 -0.0927734 20.43 -0.0927734 18.54C-0.0927734 17.01 0.742426 16.02 1.94883 15.57C2.96963 15.12 4.45443 15.03 5.47523 14.94V14.67C5.47523 14.22 5.47523 13.68 5.28963 13.32C5.10403 12.96 4.64003 12.87 4.26883 12.87C3.52643 12.87 2.87683 13.23 2.78403 13.95C2.78403 14.13 2.59843 14.31 2.41283 14.31L0.556827 14.13C0.371227 14.13 0.185627 13.95 0.278427 13.77C0.742427 11.61 2.69123 10.98 4.54723 10.98C5.47523 10.98 6.68163 11.25 7.42403 11.88C8.35203 12.69 8.25923 13.86 8.25923 15.03V17.91C8.25923 18.81 8.63043 19.17 9.00163 19.62C9.09443 19.8 9.18723 19.98 9.00163 20.07C8.53763 20.43 7.88803 20.97 7.51683 21.33ZM5.56803 16.83V16.47C4.17603 16.47 2.78403 16.74 2.78403 18.36C2.78403 19.17 3.24803 19.71 3.89763 19.71C4.45443 19.71 4.91843 19.35 5.19683 18.9C5.56803 18.18 5.56803 17.55 5.56803 16.83ZM38.048 24.93C34.5216 27.45 29.3248 28.8 24.8704 28.8C18.6528 28.8 12.992 26.55 8.81603 22.86C8.44483 22.59 8.81603 22.14 9.18723 22.41C13.7344 25.02 19.3952 26.55 25.2416 26.55C29.232 26.55 33.5008 25.74 37.4912 24.12C38.1408 23.94 38.6048 24.57 38.048 24.93ZM39.5328 23.31C39.0688 22.77 36.5632 23.04 35.3568 23.22C34.9856 23.22 34.9856 22.95 35.264 22.77C37.3056 21.42 40.6464 21.78 41.0176 22.23C41.3888 22.68 40.9248 25.92 38.976 27.45C38.6976 27.72 38.4192 27.54 38.512 27.27C38.976 26.19 39.904 23.94 39.5328 23.31ZM99.9456 19.71C100.317 19.44 100.502 19.08 100.502 18.63C100.502 18.27 100.41 18.09 100.224 17.82C100.038 17.64 99.6672 17.46 99.1104 17.19L97.3472 16.56C95.8624 16.02 95.0272 15.12 95.0272 13.77C95.0272 12.87 95.3984 12.24 96.048 11.7C96.6976 11.16 97.6256 10.89 98.7392 10.89C99.6672 10.89 100.502 11.07 101.338 11.34C101.523 11.43 101.616 11.43 101.709 11.52C101.802 11.61 101.802 11.7 101.802 11.88V12.6C101.802 12.87 101.709 12.96 101.523 12.96C101.43 12.96 101.245 12.96 101.059 12.87C100.317 12.69 99.5744 12.51 98.832 12.51C97.5328 12.51 96.8832 12.96 96.8832 13.77C96.8832 14.13 96.976 14.4 97.2544 14.58C97.44 14.76 97.904 15.03 98.5536 15.21L100.131 15.84C100.966 16.11 101.523 16.47 101.894 16.92C102.266 17.37 102.451 17.91 102.451 18.54C102.451 19.44 102.08 20.25 101.338 20.79C100.595 21.33 99.6672 21.6 98.4608 21.6C97.3472 21.6 96.3264 21.42 95.3984 21.06C95.2128 20.97 95.12 20.88 95.0272 20.88C94.9344 20.79 94.9344 20.7 94.9344 20.52V19.98C94.9344 19.71 95.0272 19.62 95.2128 19.62C95.3056 19.62 95.4912 19.62 95.7696 19.71C96.6976 19.98 97.6256 20.16 98.5536 20.16C99.0176 20.16 99.5744 19.98 99.9456 19.71ZM90.8512 11.7C90.8512 11.43 90.944 11.34 91.2224 11.34H92.4288C92.7072 11.34 92.8 11.43 92.8 11.7V20.97C92.8 21.24 92.7072 21.33 92.4288 21.33H91.5936C91.5008 21.33 91.3152 21.33 91.3152 21.24C91.2224 21.15 91.2224 21.06 91.1296 20.97L90.944 20.25C89.6448 21.15 88.3456 21.6 87.0464 21.6C86.1184 21.6 85.376 21.33 84.8192 20.79C84.2624 20.25 84.0768 19.53 84.0768 18.54V11.7C84.0768 11.43 84.1696 11.34 84.448 11.34H85.6544C85.9328 11.34 86.0256 11.43 86.0256 11.7V18C86.0256 18.72 86.2112 19.26 86.4896 19.53C86.768 19.89 87.232 20.07 87.8816 20.07C88.9024 20.07 89.8304 19.71 90.8512 19.08V11.7ZM79.9008 21.33C79.6224 21.33 79.5296 21.24 79.5296 20.97V14.58C79.5296 13.95 79.4368 13.41 79.1584 13.14C78.88 12.78 78.5088 12.69 77.952 12.69C76.9312 12.69 75.9104 12.96 74.9824 13.59C74.9824 13.68 74.9824 13.77 74.9824 13.86V21.06C74.9824 21.33 74.8896 21.42 74.6112 21.42H73.4048C73.1264 21.42 73.0336 21.33 73.0336 21.06V14.67C73.0336 14.04 72.9408 13.5 72.6624 13.23C72.384 12.87 72.0128 12.78 71.456 12.78C70.4352 12.78 69.4144 13.05 68.4864 13.68V21.15C68.4864 21.42 68.3936 21.51 68.1152 21.51H66.9088C66.6304 21.51 66.5376 21.42 66.5376 21.15V11.7C66.5376 11.43 66.6304 11.34 66.9088 11.34H67.8368C67.9296 11.34 68.1152 11.34 68.1152 11.43C68.208 11.52 68.208 11.61 68.3008 11.7L68.3936 12.33C69.6928 11.43 70.992 10.98 72.1984 10.98C73.4976 10.98 74.3328 11.43 74.7968 12.42C76.1888 11.52 77.488 10.98 78.88 10.98C79.808 10.98 80.5504 11.25 81.0144 11.79C81.4784 12.33 81.7568 13.05 81.7568 13.95V20.97C81.7568 21.24 81.664 21.33 81.3856 21.33H79.9008ZM111.174 13.5C110.71 14.04 110.432 14.94 110.432 16.2V16.47C110.432 17.64 110.71 18.54 111.174 19.08C111.731 19.62 112.474 19.89 113.587 19.89C114.144 19.89 114.794 19.8 115.443 19.62C115.629 19.62 115.722 19.53 115.722 19.53C115.907 19.53 116 19.62 116 19.89V20.43C116 20.61 116 20.7 115.907 20.79C115.814 20.88 115.722 20.97 115.536 20.97C114.886 21.24 114.051 21.42 113.216 21.42C111.638 21.42 110.339 20.97 109.504 20.07C108.669 19.17 108.205 17.91 108.205 16.2C108.205 14.49 108.669 13.23 109.504 12.33C110.339 11.43 111.638 10.98 113.216 10.98C113.958 10.98 114.701 11.07 115.35 11.34C115.536 11.43 115.629 11.43 115.629 11.52C115.722 11.61 115.722 11.7 115.722 11.88V12.6C115.722 12.87 115.629 12.96 115.443 12.96C115.35 12.96 115.258 12.96 115.072 12.87C114.515 12.69 113.958 12.6 113.402 12.6C112.474 12.69 111.638 12.96 111.174 13.5ZM105.699 11.34C105.978 11.34 106.07 11.43 106.07 11.7V20.97C106.07 21.24 105.978 21.33 105.699 21.33H104.493C104.214 21.33 104.122 21.24 104.122 20.97V11.7C104.122 11.43 104.214 11.34 104.493 11.34H105.699ZM106.07 7.46999C106.256 7.64999 106.442 8.00999 106.442 8.36999C106.442 8.72999 106.349 8.99999 106.07 9.26999C105.885 9.44999 105.514 9.62999 105.142 9.62999C104.771 9.62999 104.4 9.53999 104.214 9.26999C104.029 9.08999 103.843 8.72999 103.843 8.36999C103.843 8.00999 103.936 7.73999 104.214 7.46999C104.4 7.28999 104.771 7.10999 105.142 7.10999C105.514 7.10999 105.885 7.19999 106.07 7.46999Z" fill="#4200FD"/>
</g>
<defs>
<clipPath id="clip0_311_3196">
<rect width="116" height="36" fill="white"/>
</clipPath>
</defs>
</svg>
