<svg width="116" height="22" viewBox="0 0 116 22" fill="none" xmlns="http://www.w3.org/2000/svg">
<g clip-path="url(#clip0_311_3175)">
<path d="M27.1553 14.6064C27.1553 19.2204 30.0205 21.9819 34.2777 21.9819C36.4005 21.9819 38.1869 21.3951 39.1845 19.8533V21.9819H43.0705V0.00494385H39.0337V9.34804C38.1173 7.8062 36.4237 7.11582 34.3009 7.11582C30.1481 7.10432 27.1553 9.92335 27.1553 14.6064ZM39.1613 14.6064C39.1613 17.2413 37.3517 18.8867 35.1825 18.8867C32.9321 18.8867 31.2037 17.2413 31.2037 14.6064C31.2037 11.9254 32.9437 10.2455 35.1825 10.2455C37.3517 10.2455 39.1613 11.9485 39.1613 14.6064Z" fill="black"/>
<path d="M55.6334 16.3095C55.1694 18.0124 53.9978 18.8638 52.1534 18.8638C50.0074 18.8638 48.2442 17.5751 48.1978 15.2969H58.371C58.4986 14.7331 58.5566 14.1348 58.5566 13.4789C58.5566 9.39418 55.7494 7.09293 51.6082 7.09293C47.1886 7.09293 44.1494 10.2111 44.1494 14.4454C44.1494 19.163 47.5018 21.9936 52.1418 21.9936C55.645 21.9936 58.023 20.5438 59.067 17.6557L55.6334 16.3095ZM48.1978 12.6274C48.5806 10.982 49.961 10.0155 51.6198 10.0155C53.4294 10.0155 54.659 10.982 54.659 12.5009L54.6358 12.6274H48.1978Z" fill="black"/>
<path d="M70.609 16.3095C70.145 18.0124 68.9734 18.8638 67.129 18.8638C64.983 18.8638 63.2198 17.5751 63.1734 15.2969H73.3466C73.4742 14.7331 73.5322 14.1348 73.5322 13.4789C73.5322 9.39418 70.725 7.09293 66.5838 7.09293C62.1642 7.09293 59.125 10.2111 59.125 14.4454C59.125 19.163 62.4774 21.9936 67.1174 21.9936C70.6206 21.9936 72.9986 20.5438 74.0426 17.6557L70.609 16.3095ZM63.1734 12.6274C63.5562 10.982 64.9366 10.0155 66.5954 10.0155C68.405 10.0155 69.6346 10.982 69.6346 12.5009L69.6114 12.6274H63.1734Z" fill="black"/>
<path d="M87.7774 22.0051V18.3806H79.2978L87.5454 10.4182V7.10443H74.4954V10.5563H82.4646L74.2402 18.5532V22.0051H87.7774Z" fill="black"/>
<path d="M99.5748 16.3095C99.1108 18.0124 97.9392 18.8638 96.0948 18.8638C93.9488 18.8638 92.1856 17.5751 92.1392 15.2969H102.312C102.44 14.7331 102.498 14.1348 102.498 13.4789C102.498 9.39418 99.6908 7.09293 95.5496 7.09293C91.13 7.09293 88.0908 10.2111 88.0908 14.4454C88.0908 19.163 91.4432 21.9936 96.0832 21.9936C99.5864 21.9936 101.964 20.5438 103.008 17.6557L99.5748 16.3095ZM92.1392 12.6274C92.522 10.982 93.9024 10.0155 95.5612 10.0155C97.3708 10.0155 98.6004 10.982 98.6004 12.5009L98.5772 12.6274H92.1392Z" fill="black"/>
<path d="M23.0145 7.10443H18.0381V9.99251H23.0145V7.10443Z" fill="#40AB5D"/>
<path d="M23.0145 11.1086H18.0381V13.9967H23.0145V11.1086Z" fill="url(#paint0_linear_311_3175)"/>
<path d="M23.0145 15.1128H18.0381V18.0009H23.0145V15.1128Z" fill="url(#paint1_linear_311_3175)"/>
<path d="M4.9764 19.117H0V22.005H4.9764V19.117Z" fill="url(#paint2_linear_311_3175)"/>
<path d="M10.9852 19.117H6.00879V22.005H10.9852V19.117Z" fill="url(#paint3_linear_311_3175)"/>
<path d="M17.0057 19.117H12.0293V22.005H17.0057V19.117Z" fill="url(#paint4_linear_311_3175)"/>
<path d="M23.0145 19.117H18.0381V22.005H23.0145V19.117Z" fill="url(#paint5_linear_311_3175)"/>
<path d="M17.0057 15.1128H12.0293V18.0009H17.0057V15.1128Z" fill="url(#paint6_linear_311_3175)"/>
<path d="M10.9852 15.1128H6.00879V18.0009H10.9852V15.1128Z" fill="url(#paint7_linear_311_3175)"/>
<path d="M10.9852 11.1086H6.00879V13.9967H10.9852V11.1086Z" fill="url(#paint8_linear_311_3175)"/>
<path d="M112.068 12.2477C112.068 12.3973 112.068 12.6735 112.068 12.6735H116C116 12.6735 116 11.9371 116 11.5343C116 8.97995 114.388 7.12744 111.685 7.12744C109.945 7.12744 108.716 7.9674 108.078 9.35966V7.12744H104.018V22.0051H108.078V12.4203C108.078 10.9015 108.901 10.0615 110.166 10.0615C111.326 10.073 112.068 11.1546 112.068 12.2477Z" fill="black"/>
</g>
<defs>
<linearGradient id="paint0_linear_311_3175" x1="20.5507" y1="14.0216" x2="20.5046" y2="11.0662" gradientUnits="userSpaceOnUse">
<stop stop-color="#358C7B"/>
<stop offset="0.5256" stop-color="#33A65E"/>
</linearGradient>
<linearGradient id="paint1_linear_311_3175" x1="17.9649" y1="17.8526" x2="23.0727" y2="15.2288" gradientUnits="userSpaceOnUse">
<stop stop-color="#222B90"/>
<stop offset="1" stop-color="#367B99"/>
</linearGradient>
<linearGradient id="paint2_linear_311_3175" x1="0.000910087" y1="20.5621" x2="4.97315" y2="20.5621" gradientUnits="userSpaceOnUse">
<stop stop-color="#FF9900"/>
<stop offset="1" stop-color="#FF8000"/>
</linearGradient>
<linearGradient id="paint3_linear_311_3175" x1="6.01433" y1="20.5621" x2="10.9866" y2="20.5621" gradientUnits="userSpaceOnUse">
<stop stop-color="#FF8000"/>
<stop offset="1" stop-color="#CC1953"/>
</linearGradient>
<linearGradient id="paint4_linear_311_3175" x1="12.0279" y1="20.5621" x2="17.0001" y2="20.5621" gradientUnits="userSpaceOnUse">
<stop stop-color="#CC1953"/>
<stop offset="1" stop-color="#241284"/>
</linearGradient>
<linearGradient id="paint5_linear_311_3175" x1="18.0354" y1="20.5621" x2="23.0076" y2="20.5621" gradientUnits="userSpaceOnUse">
<stop stop-color="#222B90"/>
<stop offset="1" stop-color="#3559A6"/>
</linearGradient>
<linearGradient id="paint6_linear_311_3175" x1="11.8316" y1="17.3355" x2="17.1895" y2="15.756" gradientUnits="userSpaceOnUse">
<stop stop-color="#CC1953"/>
<stop offset="1" stop-color="#241284"/>
</linearGradient>
<linearGradient id="paint7_linear_311_3175" x1="5.83735" y1="15.596" x2="11.1534" y2="17.5467" gradientUnits="userSpaceOnUse">
<stop offset="0.00266984" stop-color="#FFCC00"/>
<stop offset="0.9999" stop-color="#CE1938"/>
</linearGradient>
<linearGradient id="paint8_linear_311_3175" x1="6.43226" y1="10.6598" x2="10.5378" y2="14.479" gradientUnits="userSpaceOnUse">
<stop offset="0.00266984" stop-color="#FFD100"/>
<stop offset="1" stop-color="#FD5A22"/>
</linearGradient>
<clipPath id="clip0_311_3175">
<rect width="116" height="22" fill="white"/>
</clipPath>
</defs>
</svg>
