<svg width="116" height="16" viewBox="0 0 116 16" fill="none" xmlns="http://www.w3.org/2000/svg">
<path d="M42.372 15.11H39.4252V4.91275H35.6143V2.44826H46.1829V4.91275H42.372V15.11Z" fill="#100F0D"/>
<path d="M57.9644 15.1099H55V2.44815H57.9644V15.1099Z" fill="#100F0D"/>
<path d="M110.271 12.6114H115.398V15.1103H107.308V2.44856H110.271V12.6114Z" fill="#100F0D"/>
<path d="M67.832 2.44826H72.6341C76.1768 2.44826 79.7018 4.2788 79.7018 8.74466C79.7018 12.9543 76.2466 15.11 72.8092 15.11H67.832V2.44826ZM70.7081 12.6283H72.5465C75.0194 12.6283 76.6675 11.1229 76.6675 8.72742C76.6675 6.45178 75.0018 4.91275 72.6164 4.91275H70.7081V12.6283Z" fill="#100F0D"/>
<path d="M96.1507 15.11H99.409L94.0625 2.44826H91.0025L85.6045 15.11H88.7745L89.7311 12.6118H95.2029L96.1507 15.11ZM90.5254 10.3621L92.4803 5.41035L94.4167 10.3621H90.5254Z" fill="#100F0D"/>
<path d="M15.7962 4.29313L11.9981 7.99966L8.19922 4.29313L11.9981 0.588173L15.7962 4.29313Z" fill="#100F0D"/>
<path d="M15.7962 11.7057L11.9981 15.4123L8.19922 11.7057L11.9981 7.9992L15.7962 11.7057Z" fill="#100F0D"/>
<path d="M8.19954 4.29347L4.40064 8L0.602539 4.29347L4.40064 0.587723L8.19954 4.29347Z" fill="#100F0D"/>
<path d="M23.3929 4.29347L19.5948 8L15.7959 4.29347L19.5948 0.587723L23.3929 4.29347Z" fill="#100F0D"/>
</svg>
