<svg width="116" height="36" viewBox="0 0 116 36" fill="none" xmlns="http://www.w3.org/2000/svg">
<path d="M41.5517 19.956H37.4785L36.5009 22.7571H34.7754L38.6344 12.393H40.4264L44.2854 22.7571H42.5301L41.5517 19.956ZM37.9002 18.6635H41.1291L39.5369 14.117H39.4924L37.9002 18.6635Z" fill="black"/>
<path d="M52.6084 18.9798C52.6084 21.3289 51.3125 22.8375 49.3574 22.8375C48.3465 22.8888 47.3946 22.3754 46.9062 21.516H46.8695V25.2578H45.2695V15.2017H46.8174V16.4594H46.8473C47.357 15.6041 48.3107 15.0908 49.3283 15.1231C51.3056 15.1231 52.6084 16.6383 52.6084 18.9798ZM50.9649 18.9798C50.9649 17.4506 50.1505 16.4445 48.9057 16.4445C47.684 16.4445 46.8618 17.4713 46.8618 18.9798C46.8618 20.5025 47.684 21.5226 48.9057 21.5226C50.1496 21.5226 50.9649 20.5241 50.9649 18.9798Z" fill="black"/>
<path d="M61.1787 18.9798C61.1787 21.3289 59.8828 22.8375 57.9277 22.8375C56.9168 22.8888 55.9649 22.3754 55.4765 21.516H55.4398V25.2578H53.8398V15.2017H55.3877V16.4594H55.4176C55.9273 15.6041 56.8809 15.0908 57.8986 15.1231C59.8751 15.1231 61.1787 16.6383 61.1787 18.9798ZM59.5344 18.9798C59.5344 17.4506 58.7199 16.4445 57.4752 16.4445C56.2534 16.4445 55.4313 17.4713 55.4313 18.9798C55.4313 20.5025 56.2534 21.5226 57.4752 21.5226C58.7199 21.5226 59.5344 20.5241 59.5344 18.9798Z" fill="black"/>
<path d="M62.4668 12.393H64.0658V22.7579H62.4668V12.393Z" fill="black"/>
<path d="M72.3913 20.5389C72.0276 22.016 70.5942 23.0038 69.0361 22.8515C66.7702 22.8515 65.3623 21.3784 65.3623 19.0162C65.3623 16.6456 66.7769 15.1089 68.9694 15.1089C71.1243 15.1089 72.4801 16.5454 72.4801 18.8365V19.3681H66.9776V19.4616C66.9264 20.0238 67.1262 20.5811 67.5274 20.991C67.9287 21.4008 68.4913 21.6236 69.0736 21.602C69.8496 21.6724 70.5814 21.2402 70.8733 20.5389H72.3913ZM66.9844 18.2834H70.8802C70.9091 17.7775 70.7196 17.2832 70.3568 16.9197C69.9939 16.5553 69.4911 16.355 68.9694 16.3658C68.4435 16.3625 67.9372 16.5636 67.565 16.9238C67.1919 17.2832 66.9836 17.7725 66.9844 18.2834Z" fill="black"/>
<path d="M86.2782 22.7579V15.1295H86.2262L83.0041 22.6793H81.7747L78.5458 15.1295H78.4946V22.7579H76.9834V12.393H78.9009L82.3603 20.5736H82.4201L85.871 12.393H87.7971V22.7579H86.2782Z" fill="black"/>
<path d="M96.3144 22.7578H94.7823V21.4579H94.7443C94.3229 22.3687 93.3569 22.9234 92.3302 22.844C91.5661 22.8871 90.8216 22.6014 90.2949 22.0623C89.7681 21.5233 89.5128 20.7872 89.5982 20.0503V15.2015H91.1982V19.749C91.1982 20.8982 91.7607 21.5085 92.8641 21.5085C93.3884 21.525 93.8961 21.3188 94.2524 20.9437C94.6078 20.5687 94.7767 20.0611 94.7155 19.5552V15.2023H96.3154L96.3144 22.7578Z" fill="black"/>
<path d="M100.863 15.1154C102.588 15.1154 103.825 16.0428 103.862 17.3784H102.36C102.292 16.7101 101.709 16.3012 100.82 16.3012C99.9518 16.3012 99.3746 16.6886 99.3746 17.2782C99.3746 17.7303 99.7598 18.0317 100.568 18.2263L101.878 18.5202C103.449 18.887 104.041 19.4476 104.041 20.5538C104.041 21.9182 102.708 22.8523 100.805 22.8523C98.9682 22.8523 97.7302 21.9398 97.6133 20.5603H99.1974C99.3097 21.2865 99.9082 21.674 100.879 21.674C101.834 21.674 102.435 21.2931 102.435 20.6896C102.435 20.2234 102.138 19.9716 101.324 19.7705L99.9314 19.4401C98.5246 19.1097 97.8137 18.4134 97.8137 17.3651C97.8119 16.0279 99.048 15.1154 100.863 15.1154Z" fill="black"/>
<path d="M105.286 13.212C105.279 12.8452 105.501 12.5106 105.849 12.3657C106.196 12.2208 106.599 12.2937 106.868 12.5512C107.138 12.8087 107.219 13.1979 107.076 13.5374C106.931 13.876 106.589 14.0971 106.212 14.0954C105.705 14.0988 105.292 13.7038 105.286 13.212ZM105.413 15.2016H107.012V22.7579H105.413V15.2016Z" fill="black"/>
<path d="M113.903 17.8015C113.758 16.9446 112.959 16.3385 112.067 16.4081C110.838 16.4081 110.023 17.4066 110.023 18.9798C110.023 20.5886 110.844 21.559 112.082 21.559C112.964 21.6443 113.763 21.049 113.904 20.2011H115.444C115.245 21.8264 113.746 23.0014 112.067 22.8523C109.845 22.8523 108.393 21.3793 108.393 18.9806C108.393 16.6324 109.844 15.1097 112.051 15.1097C113.742 14.9706 115.241 16.1654 115.428 17.8024L113.903 17.8015Z" fill="black"/>
<path fill-rule="evenodd" clip-rule="evenodd" d="M31.552 12.2701C31.552 11.9039 31.552 11.5383 31.552 11.1731C31.552 10.8671 31.552 10.5611 31.5378 10.2551C31.5289 9.58203 31.4677 8.91047 31.3548 8.24625C31.2382 7.58096 31.0197 6.93631 30.7064 6.33375C30.0704 5.12245 29.0554 4.13751 27.8068 3.52008C27.1863 3.21695 26.5227 3.00502 25.8379 2.89125C25.1525 2.78181 24.4596 2.72248 23.765 2.71377C23.4494 2.70459 23.1339 2.70153 22.8184 2.7H8.73832C8.4228 2.7 8.10728 2.7 7.79176 2.71377C7.09559 2.72224 6.40105 2.78157 5.71407 2.89125C5.02894 3.00459 4.36526 3.21708 3.74522 3.52161C2.4979 4.13811 1.48353 5.12133 0.847171 6.33069C0.533919 6.93272 0.315366 7.57685 0.198778 8.24166C0.08593 8.9064 0.0247572 9.57842 0.015776 10.2521C0.0063104 10.5581 0.0031552 10.8641 0.0015776 11.1701C0.000525867 11.5403 0 11.907 0 12.2701V23.7253C0 24.0894 0 24.4551 0 24.8223C0 25.1283 0 25.4343 0.0141984 25.7403C0.0231081 26.4139 0.0842814 27.0859 0.1972 27.7507C0.313788 28.4155 0.532341 29.0596 0.845593 29.6616C1.48195 30.871 2.49632 31.8542 3.74364 32.4707C4.36408 32.7743 5.02761 32.9868 5.71249 33.1011C6.39785 33.2108 7.09085 33.2696 7.78545 33.277C8.10097 33.2862 8.41649 33.2893 8.73201 33.2908C9.10906 33.2908 9.4861 33.2908 9.86315 33.2908H22.7995C23.115 33.2908 23.4305 33.2908 23.746 33.277C24.4406 33.2697 25.1337 33.2109 25.819 33.1011C26.5045 32.9875 27.1687 32.775 27.7894 32.4707C29.0358 31.8535 30.0495 30.8704 30.6859 29.6616C30.9996 29.0596 31.2187 28.4155 31.3359 27.7507C31.449 27.086 31.5096 26.4139 31.5173 25.7403C31.5267 25.4343 31.5299 25.1283 31.5315 24.8223C31.5315 24.4566 31.5315 24.0909 31.5315 23.7253V12.2701H31.552Z" fill="url(#paint0_linear_311_3227)"/>
<path fill-rule="evenodd" clip-rule="evenodd" d="M22.305 7.3741C22.2293 7.3741 21.551 7.4965 21.4689 7.51333L12.0917 9.3493C11.8778 9.38503 11.6765 9.47242 11.5064 9.60328C11.3298 9.75574 11.2174 9.96607 11.1909 10.1939C11.1766 10.2953 11.1697 10.3975 11.1703 10.4999V21.883C11.1957 22.1472 11.1217 22.4113 10.9621 22.6266C10.7854 22.8185 10.5413 22.9396 10.2774 22.9663L9.66531 23.0856C9.07547 23.18 8.49494 23.3229 7.92999 23.5125C7.54312 23.647 7.19295 23.8651 6.90613 24.1505C5.97043 25.1284 6.02615 26.6558 7.03076 27.567C7.34927 27.8541 7.74351 28.05 8.16978 28.1331C8.64306 28.2249 9.1337 28.1928 9.86093 28.0505C10.2466 27.9808 10.6173 27.8483 10.9574 27.6588C11.2994 27.4637 11.5938 27.1991 11.8203 26.8831C12.046 26.5675 12.2023 26.2102 12.2794 25.8335C12.3562 25.463 12.3911 25.0853 12.3835 24.7074V14.8374C12.3835 14.308 12.5413 14.1688 12.9783 14.0724C12.9783 14.0724 20.7732 12.5424 21.1376 12.4797C21.644 12.3848 21.8838 12.5256 21.8838 13.0412V19.7732C21.8838 20.0394 21.8838 20.3102 21.6929 20.5382C21.5167 20.7295 21.273 20.8501 21.0098 20.8763L20.3961 20.9972C19.8064 21.0914 19.2259 21.2337 18.6608 21.4225C18.2745 21.5579 17.9245 21.7759 17.6369 22.0605C17.1763 22.5248 16.9294 23.1504 16.9529 23.7944C16.9765 24.4383 17.2682 25.0455 17.7616 25.477C18.081 25.762 18.475 25.9562 18.9006 26.0385C19.3739 26.1303 19.8661 26.0967 20.5933 25.9559C20.9782 25.8877 21.3484 25.7568 21.6882 25.5688C22.0302 25.3742 22.3245 25.1101 22.5511 24.7946C22.7767 24.4789 22.9328 24.1217 23.0102 23.7451C23.0819 23.3734 23.1115 22.9954 23.0986 22.6174V8.17735C23.097 7.65409 22.813 7.33126 22.305 7.3741Z" fill="white"/>
<defs>
<linearGradient id="paint0_linear_311_3227" x1="15.776" y1="33.1791" x2="15.776" y2="3.3579" gradientUnits="userSpaceOnUse">
<stop stop-color="#FA233B"/>
<stop offset="1" stop-color="#FB5C74"/>
</linearGradient>
</defs>
</svg>
