<svg width="3800" height="900" viewBox="0 0 3800 900" fill="none" xmlns="http://www.w3.org/2000/svg">
<mask id="mask0_801_1241" style="mask-type:alpha" maskUnits="userSpaceOnUse" x="0" y="0" width="3800" height="900">
<rect width="3800" height="900" fill="#163A45"/>
</mask>
<g mask="url(#mask0_801_1241)">
<path d="M980.6 374.479L980.648 373.981L980.6 374.479ZM-99.5689 555.966C-86.4057 533.562 -58.4325 506.593 -12.3067 479.852C33.8105 453.117 98.0432 426.628 183.681 405.167C354.957 362.245 611.824 339.442 980.552 374.976L980.648 373.981C611.842 338.439 354.855 361.24 183.438 404.197C97.7296 425.676 33.406 452.196 -12.8083 478.987C-59.014 505.774 -87.1474 532.85 -100.431 555.46L-99.5689 555.966ZM980.552 374.976C1441.44 419.392 1761.61 548.941 2034.13 649.796C2306.63 750.647 2531.55 822.838 2801.79 752.333L2801.54 751.365C2531.63 821.783 2306.98 749.711 2034.47 648.858C1761.97 548.008 1441.68 418.411 980.648 373.981L980.552 374.976ZM2801.79 752.333C3071.93 681.855 3324.27 552.424 3520.23 426.337C3716.16 300.26 3855.77 177.491 3900.39 120.308L3899.61 119.692C3855.09 176.742 3715.59 299.438 3519.68 425.496C3323.79 551.545 3071.54 680.922 2801.54 751.365L2801.79 752.333Z" fill="#FABF28"/>
</g>
</svg>
